<svg viewBox="0 0 32 32" xmlns="http://www.w3.org/2000/svg"><path d="m26.070313 3.996094c-.335938.015625-.652344.113281-.933594.222656h-.003906c-.285157.113281-1.640625.683594-3.699219 1.546875-2.058594.867188-4.730469 1.992188-7.382813 3.109375-5.296875 2.230469-10.503906 4.425781-10.503906 4.425781l.0625-.023437s-.359375.117187-.734375.375c-.191406.125-.402344.296875-.585937.566406-.183594.269531-.332032.683594-.277344 1.109375.089844.722656.558594 1.15625.894531 1.394531.339844.242188.664063.355469.664063.355469h.007812l4.882813 1.644531c.21875.703125 1.488281 4.875 1.792968 5.835938.179688.574219.355469.933594.574219 1.207031.105469.140625.230469.257813.378906.351563.058594.035156.121094.0625.183594.085937.019531.011719.039063.015625.0625.019531l-.050781-.011718c.015625.003906.027344.015625.039062.019531.039063.011719.066407.015625.117188.023437.773437.234375 1.394531-.246093 1.394531-.246093l.035156-.027344 2.882813-2.625 4.832031 3.707031.109375.046875c1.007813.441406 2.027344.195313 2.566406-.238281.542969-.4375.753907-.996094.753907-.996094l.035156-.089844 3.734375-19.128906c.105469-.472656.132812-.914062.015625-1.34375-.117188-.429687-.417969-.832031-.78125-1.046875-.367188-.21875-.730469-.285156-1.066406-.269531zm-.101563 2.050781c-.003906.0625.007813.054688-.019531.175781v.011719l-3.699219 18.929688c-.015625.027343-.042969.085937-.117187.144531-.078125.0625-.140625.101562-.464844-.027344l-5.910156-4.53125-3.570313 3.253906.75-4.789062s9.257813-8.628906 9.65625-9c.398438-.371094.265625-.449219.265625-.449219.027344-.453125-.601562-.132812-.601562-.132812l-12.175782 7.542968-.003906-.019531-5.835937-1.964844v-.003906c-.003907 0-.011719-.003906-.015625-.003906.003906 0 .03125-.011719.03125-.011719l.03125-.015625.03125-.011719s5.210937-2.195312 10.507812-4.425781c2.652344-1.117187 5.324219-2.242187 7.378906-3.109375 2.054688-.863281 3.574219-1.496094 3.660157-1.53125.082031-.03125.042968-.03125.101562-.03125z"/></svg>