<svg id="Layer_1" data-name="Layer 1" xmlns="http://www.w3.org/2000/svg" viewBox="0 0 237.04 255.97">
  <path d="M81.98.53c23.47-1.54,48.18.87,71.78-.17,44.28,2.35,80.24,38.32,82.64,82.62.85,15.64.88,36.81-.03,52.43-1.97,34.04-24.18,64.23-55.79,76.51-24.4,9.48-51.08,4.22-76.68,5.71l-28.06,32.85c-12,10.77-23.59,4.86-24.73-10.71-.72-9.81.78-20.35-.22-30.23C22.52,196.17,2.63,167.45.7,135.92c-.96-15.72-.91-37.66,0-53.41C3.21,38.97,38.52,3.39,81.98.53ZM66.11,238.52l27.71-32.46c2.44-2.49,3.32-3.19,6.98-3.51,24.44-2.09,50.89,4.39,74.29-4.6,26.71-10.26,44.78-35.32,46.34-64,.81-14.94.82-35.03,0-49.97-2.02-36.74-31.34-66.5-68.16-68.64-22.93,1.11-47.14-1.41-69.92.03C46.99,17.66,17.84,47.24,15.68,83.51c-.89,15.01-.9,35.92-.03,50.94,1.42,24.34,15.91,47.45,37.14,59.22,3.18,1.76,13.32,5.09,13.32,9.15v35.69Z"/>
  <path d="M66.49,56.43c12.23-1.55,21.06,6.04,28.34,14.84,7.31,8.84,7.95,20.78,1.24,30.21-2.83,3.98-9.51,7.18-5.75,12.24,6,8.08,17.45,15.85,23.97,23.95,4.72,3.15,7.8-2.91,11-5.48,15.11-12.17,30.77-2.37,40.89,10.51,13.55,17.25-.58,36.54-18.2,42.62-51.91,17.9-123.46-53.36-105.85-105.33,3.54-10.47,12.74-22.1,24.36-23.57ZM67.97,71.4c-7.35,1.24-12.67,14.01-13.29,20.66-3.37,36.66,38.12,79.44,74.09,81.05,8.82.4,27.46-4.19,27.72-15.24.11-4.56-6.05-10.76-9.5-13.46-10.15-7.96-13.73,3.2-21.03,6.94-5.82,2.98-12.47,3-18.26-.1-5.47-2.93-23.27-21.11-27.88-26.54-6.43-7.57-8.02-16.21-2.45-24.93,3.55-5.55,9.78-7.04,8.08-15.15-.55-2.62-7.13-9.34-9.42-11.05-2.57-1.92-4.8-2.72-8.08-2.17Z"/>
  <path d="M113.41,30.45c6.66-1.35,19.44,1.15,26.1,3.13,28.96,8.62,51.63,34.28,56.77,64.06,1.29,7.48,4.34,24.09-8.47,21.44-6.37-1.32-4.88-8.29-5.36-12.61-3.64-32.89-27.25-57.1-60.17-61.15-3.7-.46-7.79.7-11.2-1.78-4.9-3.57-3.32-11.94,2.33-13.09Z"/>
  <path d="M110.22,72.6c-3.35-3.36-2.55-9,1.35-11.54,4.4-2.86,16-.13,20.93,1.49,20.16,6.63,35.62,27.47,35.47,48.9-.05,7.02-8.72,10.79-13.4,5.41-2.43-2.78-1.56-6.96-2.13-10.35-2.62-15.47-14.17-28.2-29.79-31.12-3.99-.75-9.5.13-12.43-2.8Z"/>
  <path d="M81.98.53c23.47-1.54,48.18.87,71.78-.17,44.28,2.35,80.24,38.32,82.64,82.62.85,15.64.88,36.81-.03,52.43-1.97,34.04-24.18,64.23-55.79,76.51-24.4,9.48-51.08,4.22-76.68,5.71l-28.06,32.85c-12,10.77-23.59,4.86-24.73-10.71-.72-9.81.78-20.35-.22-30.23C22.52,196.17,2.63,167.45.7,135.92c-.96-15.72-.91-37.66,0-53.41C3.21,38.97,38.52,3.39,81.98.53ZM66.11,238.52l27.71-32.46c2.44-2.49,3.32-3.19,6.98-3.51,24.44-2.09,50.89,4.39,74.29-4.6,26.71-10.26,44.78-35.32,46.34-64,.81-14.94.82-35.03,0-49.97-2.02-36.74-31.34-66.5-68.16-68.64-22.93,1.11-47.14-1.41-69.92.03C46.99,17.66,17.84,47.24,15.68,83.51c-.89,15.01-.9,35.92-.03,50.94,1.42,24.34,15.91,47.45,37.14,59.22,3.18,1.76,13.32,5.09,13.32,9.15v35.69Z"/>
</svg>
