<?xml version="1.0" encoding="UTF-8"?>
<svg id="Layer_1" data-name="Layer 1" xmlns="http://www.w3.org/2000/svg" viewBox="0 0 255.91 255.73">
  <path d="M120.37.22c88.64-5.07,155.5,79.12,130.1,164.5-23.15,77.83-113.34,114.38-184.67,75.07l-56.58,15.79c-5.31.98-9.74-3.3-9.08-8.57l15.88-56.98C-29.31,107.89,26.61,5.57,120.37.22ZM18.58,237.23l48.7-13.01c7.28,2.36,13.82,6.67,21.1,9.39,67.59,25.24,141.66-19.04,151.38-90.08C251.3,59.21,168.95-7.49,88.74,22.03,28.03,44.38-1.57,113.9,24.64,173.51c1.76,4,6.97,11.74,6.96,15.55l-13.02,48.18Z"/>
  <path d="M92.9,58.63c11.04-.59,19.65,6.82,26.32,14.83,7.65,9.18,8.44,20.67,1.66,30.63-3.25,4.78-10.19,7.47-5.67,13.33,3.7,4.8,18.42,19.5,23.23,23.22,5.93,4.59,8.76-2.79,13.53-5.97,14.95-9.96,28.34-1.89,38.44,9.94,20.22,23.7-9.21,50.16-33.2,51.71-49.17,3.19-101.32-49.53-97.69-98.65,1.18-15.94,16.32-38.12,33.39-39.03ZM93.39,73.57c-3.97.4-10.6,7.26-13.09,10.42-15.39,19.54.99,52.26,15.18,68.13,19.04,21.28,63.85,46.17,85.14,14.68,2.23-3.3,2.23-7.12,0-10.42-1.04-1.53-7.98-8.4-9.54-9.44-9.06-6.03-13.77,5.6-21.16,8.65-6.8,2.8-14.18,2.1-19.98-2.47-9.43-7.44-18.06-19.59-27.46-27.47-4.91-6.74-5.23-15.2-.91-22.38,3.46-5.75,11.82-8.84,8.1-17.26-.67-1.53-8.35-9.4-9.94-10.53-1.76-1.26-4.13-2.12-6.34-1.89Z"/>
</svg>
