<svg id="Layer_1" data-name="Layer 1" xmlns="http://www.w3.org/2000/svg" viewBox="0 0 468.54 362.94">
  <defs>
    <style>
      .cls-1 {
        fill: #231f20;
      }
    </style>
  </defs>
  <path class="cls-1" d="M341.1,362.86c-6.58-.47-11.84-5.21-15.17-10.68-6.66-9.58-13-20.14-18.87-30.47-2.71-4.41-7.94-4.8-12.57-3.63-19.29,4.33-38.83,6.62-58.51,6.66-21.56.23-43.34-2.91-65.03-7.53-6.36-1.14-9.66,3.35-12.06,8.46-6.22,11.3-12.5,22.23-20.74,31.99-7.42,9-19.85,4.14-29.01,1.18-31.83-10.53-66.87-29.15-99.04-52.24-2.17-1.61-4.01-3.41-5.3-5.45-3.38-5.55-3.1-12.72-3.82-19.09C-5.21,196.01,18.37,109.78,67.74,36.61c5.02-7.32,11.52-10.16,19.42-13.34,20.81-8.35,42.55-15.45,64.16-20.23,10.14-2.29,24.2-6.74,31.76,2.88,3.21,3.96,5.28,10.85,8.94,13.5,4.61,2.83,10.58.91,15.82.88,2.67-.17,5.16-.31,7.86-.49,16.28-1.27,33.04-.45,49.35.91,10.88,1.49,12.83-1.71,17.81-10.7,4.79-8.15,11.82-11.29,21.19-9.53,30.6,5.82,61.51,14.66,89.56,29.07,2.71,1.81,4.97,4.16,6.96,6.9,45.96,67.39,69.96,148.37,67.84,227.86-.17,6.34-.44,13.1-.93,19.43-.52,7.4-1.38,14.44-6.58,20.2-3.43,3.78-7.9,6.59-12.01,9.52-27.21,18.89-59.67,35.11-91.63,45.99-5.21,1.69-10.72,3.87-15.98,3.42l-.17-.02ZM30.82,287.36c1.74,2.35,4.39,4.32,6.92,6,26.98,17.71,52.32,31.55,78.53,39.78,6.29,1.41,11.53-4.95,12.49-10.4.63-3.57-2.26-6.21-5.15-7.78-5.55-3.15-12.01-5.7-16.83-9.9-9.2-8.31-4.42-20.7,5.24-26.96,5.53-4.07,12.29-4.92,18.8-2.39,59.05,25.4,122.22,30.27,182.7,9.38,5.22-1.75,10.27-3.87,15.35-6.14,7.75-3.52,17.16-7.23,24.95-2.71,4.98,2.94,9.4,7.42,11.43,13.36,3.21,10.05-3.3,16.91-12.77,20.96-3.93,2.37-12.64,4.63-13.42,9.51-.26,4.16,3.32,9.28,6.87,11.42,3.51,2.19,7.99,1.21,11.77-.18,25.9-9.6,52.62-23.49,74.6-38.71,2.16-1.43,4.32-3.24,5.73-5.24,1.98-2.74,2.55-6,2.81-9.34.35-5.4.53-10.98.64-16.35,1.38-71.24-19.46-143.85-59.45-205.03-2.12-2.93-4.67-5.35-7.73-7.13-19.41-9.3-40.21-15.55-60.92-20.44-3.68-.72-7.97-1.31-10.57,1.65-3.48,3.83-5.73,11.53-8.78,15.35-3.97,5.04-11.32,2.58-16.84,2.24-12.78-1.48-29.91-2.91-45.31-2.9-8.97.08-17.48.84-26.16,1.32-6.41.54-14.1,1.61-20.58,2.28-5.48.65-8.95.7-11.83-4.83-2.78-4.44-4.86-10.92-8.21-14.05-2.5-2.34-6.22-1.82-9.48-1.21-17.2,3.79-35.23,9.61-52.01,16.12-3.53,1.38-7.32,2.68-10.52,4.79-5.44,3.44-8.19,9.18-11.55,14.5-40.08,65.85-58.81,139.99-53.66,214.98.33,2.93,1.16,5.62,2.84,7.91l.11.15ZM307.75,256.45c-42.5-1.15-63.23-47.13-48.24-82.52,16.87-42.16,72.74-45.54,93.68-5.45,20.22,36.39-1.47,86.78-45.25,87.97h-.19ZM307.96,167.22c-25.11.87-32.76,33.3-20.83,50.39,11.84,17.47,34.32,14.86,43.36-3.9,9.05-17.34-.65-46.32-22.32-46.5h-.22ZM161.38,256.26c-28.53.1-51.36-24.39-53.06-52.2-1.75-21.97,8.06-45.41,27.26-56.8,28.33-16.29,61.89-3.46,73.73,26.71,15.06,36.08-6.75,81.67-47.74,82.29h-.19ZM161.76,167.25c-22.36-.35-32.04,28.06-23.65,45.92,9.44,20.46,34.85,21.83,45.28,1.51,9.08-17,1.18-46.94-21.42-47.42h-.21Z"/>
</svg>
