<?xml version="1.0" encoding="UTF-8"?>
<svg id="Layer_1" data-name="Layer 1" xmlns="http://www.w3.org/2000/svg" viewBox="0 0 456.95 511.23">
  <path d="M331.22,0c-1.6,24.96,2.3,48.46,15.55,69.78,17.28,27.79,46.1,46.08,78.76,49.97l31.42,2.01v106.79c-44.15,2.48-87.34-6.14-125.72-27.95l-.02,159.18c-9.67,111.77-125.18,181.48-229.46,138.71C6.85,459.56-30.18,342.84,27.47,256.59c38.72-57.93,107.93-83.32,176.03-69.95v113.78c-10.47-2.55-20.57-8.01-31.45-8.97-55.16-4.85-84.49,62.78-42.4,98.3,36.77,31.03,90.93,5.14,92.85-41.89l-.04-347.86h108.76ZM427.01,149.71c-63.16-3.06-117.76-55.38-124.92-118.08l-1.31-1.68h-48.39v324.87c0,23.12-19.73,51.86-38.61,64.18-45.55,29.74-107.91,9.89-128.37-40.57-21.16-52.17,25.94-130.81,87.69-116.56,2.37-15.31.46-32.58.46-48.28-70.91-4.66-135.18,48.45-142.68,119.28-7.7,72.76,45.16,137.93,117.36,147.07,77.67,9.84,147.72-46.99,153.08-125.09l-.04-212.12,37.39,26.96c26.44,17.21,56.94,26.23,88.33,28.92v-48.9Z"/>
</svg>
