<?xml version="1.0" encoding="UTF-8"?>
<svg id="Layer_1" data-name="Layer 1" xmlns="http://www.w3.org/2000/svg" viewBox="0 0 331.17 206.4">
  <defs>
    <style>
      .cls-1 {
        fill: #ee2e31;
        stroke-width: 0px;
      }
    </style>
  </defs>
  <path class="cls-1" d="M327.28,73.44l3.89-45.13L307.01.02l-67.79.11-15.88,14.48L211.55.45l-67.79.11-27.03,25.29-3.23-25.84h-59.18L0,206.4h47.08l11.02-33.42,28.41,1.15,6.03,32.27h46.73v-.04s49.06-.08,49.06-.08l21.12-20.75,16.21,20.86h61.58l29.82-34.69,5.52-81.64h-62.15l-3.22,46.34,31.92.61-11.97,4.14-.61,11.17-28.65.05,7.56-106.29,21.38.56-1,26.78h51.41ZM69.74,124.22l8.89-38.04,1.96,38.04h-10.84ZM177.18,129.14l-1.65,24.94-22.71.02.83-14.32h-22.69l-3.22-25.75,8.73,10.01,53.36.48-12.66,4.62ZM157.62,76.4l2.32-29.37,21.96.53-.6,13.17,25.14.62-1.21,23.98-6.6-7.58-41.02-1.34Z"/>
</svg>