<?xml version="1.0" encoding="UTF-8"?>
<svg id="Layer_1" data-name="Layer 1" xmlns="http://www.w3.org/2000/svg" viewBox="0 0 404.63 135.1">
  <defs>
    <style>
      .cls-1 {
        fill: #fff;
        stroke-width: 0px;
      }
    </style>
  </defs>
  <path class="cls-1" d="M119.46,84.93c-6.72,30.17-30.49,50.17-58.48,50.17C24.7,135.1,0,103.2,0,68.72,0,36.14,22.83,2.69,60.67,2.69s55.66,30.86,58.79,50.86h-30.96c-3.28-9.48-12.04-22.24-27.99-22.24-19.86,0-30.96,19.14-30.96,37.24,0,19.31,11.88,37.93,31.11,37.93s25.96-17.07,27.83-21.55h30.96Z"/>
  <path class="cls-1" d="M136.62,2.69h28.62v127.58h-28.62V2.69Z"/>
  <path class="cls-1" d="M279.68,127.75h-28.27v-10.17h-.36c-6.12,12.24-18.37,13.27-25.93,13.27-6.12,0-20.53-1.38-29.35-12.07-7.92-9.48-9.01-16.38-9.01-29.48v-57.24h29.89v52.93c0,6.55,0,19.14,16.03,19.14,8.64,0,17.11-4.31,17.11-19.48v-52.58h29.89v95.68Z"/>
  <path class="cls-1" d="M301.19,0h28.62v39.48c10.17-10.86,23.79-10.86,27.76-10.86,20,0,47.07,14.31,47.07,50.51s-23.96,51.72-48.27,51.72c-13.45,0-23.79-6.55-27.41-13.45h-.34v10.17h-27.41V0ZM352.05,104.13c14.65,0,23.97-11.89,23.97-24.48s-9.31-24.31-23.45-24.31c-15.17,0-23.79,12.24-23.79,24.14,0,13.28,8.97,24.65,23.27,24.65Z"/>
</svg>